<?xml version="1.0" encoding="utf-8"?>
<!-- Generator: Adobe Illustrator 26.0.1, SVG Export Plug-In . SVG Version: 6.00 Build 0)  -->
<svg version="1.1" id="Layer_1" xmlns="http://www.w3.org/2000/svg" xmlns:xlink="http://www.w3.org/1999/xlink" x="0px" y="0px"
	 viewBox="0 0 720 720" style="enable-background:new 0 0 720 720;" xml:space="preserve">
<style type="text/css">
	.st0{fill:#F18D28;}
	.st1{fill:#20DCEB;}
	.st2{fill:#1D3F59;}
	.st3{opacity:0.7;fill:url(#SVGID_1_);}
	.st4{fill:#F18E28;}
	.st5{fill:#FFFFFF;}
	.st6{opacity:0.7;fill:url(#SVGID_00000002342976098283851710000000269610568492991134_);}
</style>
<g>
	<g>
		<path class="st0" d="M262.43,171.63c9.98-2.33,31-7.11,60.47-9.58v-8.19c-28.4,2.34-49.15,6.77-59.4,9.13
			c-22.93-11.63-42.54-17.12-57.4-19.6v8.29C221.62,154.43,240.83,160.35,262.43,171.63z"/>
		<path class="st0" d="M125.33,395.17L140.09,341c-7.91-9.09-22.64-26.52-26.61-44.8c-0.45-2.09-0.86-4.25-1.25-6.44h-8.29
			c0.47,2.79,0.98,5.53,1.55,8.18c3.7,17.07,15.14,32.79,25.57,45.11l-13.4,49.17L125.33,395.17z"/>
		<path class="st0" d="M458.04,171.63c21.59-11.28,40.81-17.2,56.33-19.95v-8.29c-14.85,2.49-34.46,7.98-57.4,19.6
			c-10.25-2.36-31.01-6.8-59.4-9.13v8.19C427.03,164.52,448.06,169.29,458.04,171.63z"/>
		<path class="st0" d="M600.32,177.74c4.6,7.64,5.99,16.29,8.03,30.25h8.26c-2.21-15.15-3.71-25.22-9.29-34.47
			c-6.21-10.31-15.31-15.89-26.53-21.79l-3.96,7.15C587.29,164.37,595.14,169.14,600.32,177.74z"/>
		<path class="st0" d="M120.14,177.74c5.18-8.6,13.04-13.37,23.49-18.86l-3.96-7.15c-11.22,5.89-20.32,11.48-26.53,21.79
			c-5.57,9.25-7.08,19.32-9.29,34.47h8.26C114.15,194.03,115.54,185.38,120.14,177.74z"/>
		<path class="st0" d="M126.53,424.04l-3.98,7.28c16.34,12.99,53.38,42.36,87.81,69.11l5.18-6.32
			C180.27,466.71,142.25,436.54,126.53,424.04z"/>
		<path class="st0" d="M606.98,296.19c-3.97,18.29-18.69,35.72-26.61,44.8l14.76,54.17l7.66-2.95l-13.4-49.17
			c10.43-12.32,21.86-28.03,25.57-45.11c0.57-2.64,1.08-5.38,1.55-8.17h-8.29C607.84,291.94,607.43,294.1,606.98,296.19z"/>
		<path class="st0" d="M504.92,494.1l5.18,6.32c34.43-26.74,71.47-56.11,87.81-69.11l-3.98-7.28
			C578.21,436.54,540.19,466.71,504.92,494.1z"/>
		<path class="st0" d="M451.81,534.54c-28.43,20.82-49.36,29.96-65.18,33.95l1.22,8.12c16.41-4.09,38.86-13.56,68.79-35.48
			c11.87-8.7,28.05-21.03,45.39-34.45l-5.18-6.32C479.67,513.65,463.64,525.87,451.81,534.54z"/>
		<path class="st0" d="M268.65,534.54c-11.83-8.67-27.86-20.89-45.04-34.18l-5.18,6.32c17.34,13.42,33.51,25.75,45.39,34.45
			c29.93,21.92,52.38,31.39,68.79,35.48l1.22-8.12C318.01,564.5,297.08,555.36,268.65,534.54z"/>
	</g>
	<path class="st1" d="M535.84,163.26c13.01,0,24.52,2.41,33.29,6.97c10.84,5.63,16.23,9.07,19.53,14.54
		c3.36,5.57,4.45,13.1,6.45,26.77l0.18,1.26c3.99,27.35,3.39,57.44-1.62,80.51c-3.38,15.58-18.04,32.41-23.56,38.75l-4.79,5.5
		l1.92,7.03l18.66,68.45c-24.2,19.25-104.78,83.17-142.13,110.52c-46.96,34.39-70.75,34.39-83.53,34.39
		c-12.78,0-36.57,0-83.53-34.39c-37.35-27.36-117.93-91.27-142.13-110.52l18.66-68.45l1.92-7.03l-4.79-5.5
		c-5.52-6.34-20.18-23.17-23.56-38.75c-5-23.07-5.61-53.17-1.62-80.51l0.18-1.26c1.99-13.66,3.09-21.19,6.45-26.76
		c3.3-5.47,8.69-8.91,19.53-14.54c8.77-4.56,20.29-6.97,33.29-6.97c12.08,0,37.44,2.66,71.49,20.44l4.48,2.34l4.92-1.15
		c11.38-2.66,46.01-10.77,94.7-10.77s83.32,8.1,94.7,10.77l4.92,1.15l4.48-2.34C498.39,165.91,523.75,163.26,535.84,163.26
		 M535.84,149.64c-17.18,0-44.69,4.7-77.8,21.99c-13.79-3.23-48.67-11.12-97.81-11.12s-84.02,7.9-97.81,11.12
		c-33.1-17.29-60.62-21.99-77.8-21.99c-15.18,0-28.87,2.94-39.57,8.5c-11.17,5.81-19.5,10.61-24.92,19.6
		c-4.77,7.92-6.08,16.92-8.26,31.82l-0.18,1.26c-4.22,28.88-3.55,60.79,1.78,85.37c3.97,18.29,18.69,35.72,26.6,44.8l-21.01,77.1
		c0,0,104.82,83.66,149.58,116.44c48.23,35.32,74.89,37.03,91.58,37.03c16.68,0,43.35-1.7,91.58-37.03
		c44.75-32.78,149.58-116.44,149.58-116.44L580.37,341c7.91-9.09,22.64-26.52,26.61-44.8c5.33-24.58,6-56.49,1.78-85.37l-0.18-1.26
		c-2.17-14.91-3.49-23.9-8.26-31.82c-5.42-8.99-13.74-13.8-24.92-19.6C564.7,152.58,551.02,149.64,535.84,149.64L535.84,149.64z"/>
	<path class="st2" d="M360.23,556.04c13.98,0,38.48-3.44,83.49-36.41s141.07-109.7,141.07-109.7l-19.59-73.84
		c0,0,21.86-21.32,26.61-43.19c4.74-21.86,5.72-51.58,1.59-79.83c-4.13-28.26-4.11-30.22-25.15-41.15
		c-21.04-10.93-61.52-10.42-107.66,15.28c0,0-39.15-11.17-100.35-11.17S259.88,187.2,259.88,187.2
		c-46.15-25.7-86.63-26.21-107.66-15.28s-21.03,12.89-25.15,41.15s-3.15,57.97,1.59,79.83s26.61,43.19,26.61,43.19l-19.59,73.84
		c0,0,96.06,76.73,141.07,109.7S346.25,556.04,360.23,556.04z"/>
	<radialGradient id="SVGID_1_" cx="264.5945" cy="367.8651" r="61.4005" gradientUnits="userSpaceOnUse">
		<stop  offset="0" style="stop-color:#BE1622"/>
		<stop  offset="0.3298" style="stop-color:#CC2025;stop-opacity:0.6702"/>
		<stop  offset="1" style="stop-color:#E6332A;stop-opacity:0"/>
	</radialGradient>
	<circle class="st3" cx="264.59" cy="367.87" r="61.4"/>
	<circle class="st4" cx="264.59" cy="367.87" r="28.27"/>
	<path class="st5" d="M173.44,302.68c-7.28-12.29-13.25-23.81-13.53-27.4c-0.42-5.51,0.78-27.01,1.66-42.71
		c0.53-9.48,0.77-15.93,1-19.41c0.15-2.31,1.33-4.67,3.51-6.25c7.58-5.48,23.34-8.53,31.22-6.04c7.57,2.38,21.43,8.11,30.98,12.16
		c2.43-2.88,5.11-6.03,6.94-8.15c-9.57-4.1-25.96-10.96-34.85-13.76c-10.89-3.43-30.08,0.15-40.27,7.51
		c-6.28,4.53-7.65,9.37-7.7,12.63c-0.05,3.28-0.5,11.37-1.03,20.74c-0.99,17.75-2.12,37.88-1.65,44.06
		c0.57,7.43,11.31,26.01,18.27,37.37L173.44,302.68z"/>
	<path class="st5" d="M360.23,502.44c19.95,0,36.3-19.03,42.52-27.39c1.72-2.31,2.13-5.33,1.1-8.01l-5.1-13.37
		c-1.08-2.82-3.48-4.93-6.43-5.6c-5.57-1.26-16.09-2.99-32.09-2.99c-16,0-26.52,1.72-32.09,2.99c-2.95,0.67-5.35,2.78-6.43,5.6
		l-5.1,13.37c-1.03,2.69-0.61,5.7,1.1,8.01C323.93,483.4,340.28,502.44,360.23,502.44z"/>
	<path class="st2" d="M342.9,486.93c-10.43-4.79-16.91-15.5-16.91-15.5c7.19-0.13,11.35,1.26,13.74,2.78
		c2.02,1.29,3.16,3.58,3.16,5.97V486.93z"/>
	
		<radialGradient id="SVGID_00000145768242354241475500000000218301298836662462_" cx="455.8684" cy="367.8651" r="61.4005" gradientUnits="userSpaceOnUse">
		<stop  offset="0" style="stop-color:#BE1622"/>
		<stop  offset="0.3298" style="stop-color:#CC2025;stop-opacity:0.6702"/>
		<stop  offset="1" style="stop-color:#E6332A;stop-opacity:0"/>
	</radialGradient>
	
		<circle style="opacity:0.7;fill:url(#SVGID_00000145768242354241475500000000218301298836662462_);" cx="455.87" cy="367.87" r="61.4"/>
	<circle class="st4" cx="455.87" cy="367.87" r="28.27"/>
	<path class="st5" d="M547.03,302.68c7.28-12.29,13.25-23.81,13.53-27.4c0.42-5.51-0.78-27.01-1.66-42.71
		c-0.53-9.48-0.77-15.93-1-19.41c-0.15-2.31-1.33-4.67-3.51-6.25c-7.58-5.48-23.34-8.53-31.22-6.04
		c-7.57,2.38-21.43,8.11-30.98,12.16c-2.43-2.88-5.11-6.03-6.94-8.15c9.57-4.1,25.96-10.96,34.85-13.76
		c10.89-3.43,30.08,0.15,40.27,7.51c6.28,4.53,7.65,9.37,7.7,12.63c0.05,3.28,0.5,11.37,1.03,20.74
		c0.99,17.75,2.12,37.88,1.65,44.06c-0.57,7.43-11.31,26.01-18.27,37.37L547.03,302.68z"/>
	<path class="st2" d="M377.56,486.93c10.43-4.79,16.91-15.5,16.91-15.5c-7.19-0.13-11.35,1.26-13.74,2.78
		c-2.02,1.29-3.16,3.58-3.16,5.97V486.93z"/>
	<path class="st5" d="M596.77,212.58l-0.18-1.26c-3.99-27.33-4.5-30.85-26.77-42.42c-19.74-10.26-60.22-12.49-109.68,14.66
		c-7.53-1.95-45.27-10.93-99.91-10.93s-92.37,8.98-99.91,10.93c-49.46-27.15-89.95-24.92-109.68-14.66
		c-22.27,11.57-22.78,15.08-26.77,42.42l-0.18,1.26c-4.02,27.51-3.41,57.81,1.64,81.05c4.24,19.56,21.09,38.22,26.15,43.47
		l-19.67,74.11l1.74,1.39c0.96,0.77,96.63,77.16,141.18,109.79c45.36,33.22,70.52,37.07,85.51,37.07c14.98,0,40.15-3.84,85.51-37.07
		c44.55-32.63,140.22-109.02,141.18-109.79l1.74-1.39l-19.67-74.11c5.06-5.25,21.9-23.91,26.15-43.47
		C600.18,270.39,600.79,240.09,596.77,212.58z M308.98,536.55l51.25-15.22l51.25,15.22c-25.18,14.04-40.87,16.08-51.25,16.08
		C349.85,552.64,334.16,550.59,308.98,536.55z M588.48,292.18c-4.47,20.58-25.45,41.26-25.66,41.47l-1.42,1.39l19.53,73.61
		c-13.21,10.53-98.1,78.11-139.22,108.23c-7.8,5.71-14.94,10.51-21.53,14.56l-59.96-17.81l-59.96,17.81
		c-6.58-4.05-13.73-8.85-21.53-14.56c-41.12-30.12-126.01-97.7-139.22-108.23l19.02-71.69l0.51-1.92l-1.42-1.39
		c-0.21-0.21-21.19-20.89-25.66-41.47c-4.88-22.48-5.46-51.87-1.55-78.62l0.18-1.26c3.92-26.88,3.99-27.4,23.17-37.36
		c18.4-9.56,56.79-11.31,104.44,15.23l1.23,0.69l1.36-0.39c0.39-0.11,39.47-11.04,99.42-11.04s99.03,10.93,99.42,11.04l1.36,0.39
		l1.23-0.69c47.65-26.54,86.04-24.79,104.44-15.23c19.17,9.96,19.25,10.48,23.17,37.36l0.18,1.26
		C593.94,240.31,593.36,269.7,588.48,292.18z"/>
	<g>
		<g>
			<rect x="96.79" y="252.26" class="st0" width="45.32" height="8.83"/>
		</g>
		<g>
			<rect x="119.98" y="235.9" class="st0" width="22.13" height="8.83"/>
		</g>
		<g>
			<rect x="105.97" y="236.3" class="st0" width="6.83" height="8.02"/>
		</g>
		<g>
			<rect x="117.72" y="268.62" class="st0" width="24.39" height="8.83"/>
		</g>
		<g>
			<rect x="103.95" y="269.03" class="st0" width="6.83" height="8.02"/>
		</g>
	</g>
	<g>
		<rect x="120.17" y="368.61" class="st0" width="39.26" height="7.55"/>
	</g>
	<g>
		<rect x="132.5" y="381.68" class="st1" width="36.81" height="7.55"/>
	</g>
	<g>
		<g>
			<rect x="577.89" y="252.26" class="st0" width="45.32" height="8.83"/>
		</g>
		<g>
			<rect x="577.89" y="235.9" class="st0" width="22.13" height="8.83"/>
		</g>
		<g>
			<rect x="607.2" y="236.3" class="st0" width="6.83" height="8.02"/>
		</g>
		<g>
			<rect x="577.89" y="268.62" class="st0" width="24.39" height="8.83"/>
		</g>
		<g>
			<rect x="609.23" y="269.03" class="st0" width="6.83" height="8.02"/>
		</g>
	</g>
	<rect x="560.57" y="368.61" class="st0" width="39.26" height="7.55"/>
	<g>
		<rect x="550.7" y="381.68" class="st1" width="36.81" height="7.55"/>
	</g>
</g>
</svg>
